<svg xmlns="http://www.w3.org/2000/svg" width="40" height="40" viewBox="0 0 40 40">
    <g fill="none" fill-rule="evenodd">
        <!-- Background circle -->
        <circle cx="20" cy="20" r="18" fill="#3592C4"/>

        <!-- Cat face stylized as 'P' for Picat -->
        <path fill="#FFFFFF"
              d="M15,10 C15,10 13,14 13,20 C13,26 15,30 15,30 L25,30 C28,30 30,27 30,24 C30,21 28,18 25,18 L15,18 M15,10 L25,10 C28,10 30,13 30,16 C30,19 28,22 25,22"
              stroke="#FFFFFF" stroke-width="2.5"/>

        <!-- Eyes -->
        <circle cx="17" cy="14" r="2" fill="#FFFFFF"/>
        <circle cx="23" cy="14" r="2" fill="#FFFFFF"/>

        <!-- Whiskers -->
        <line x1="15" y1="16" x2="10" y2="15" stroke="#FFFFFF" stroke-width="1"/>
        <line x1="15" y1="18" x2="10" y2="19" stroke="#FFFFFF" stroke-width="1"/>
        <line x1="25" y1="16" x2="30" y2="15" stroke="#FFFFFF" stroke-width="1"/>
        <line x1="25" y1="18" x2="30" y2="19" stroke="#FFFFFF" stroke-width="1"/>
    </g>
</svg>