<svg xmlns="http://www.w3.org/2000/svg" width="16" height="16" viewBox="0 0 16 16">
  <g fill="none" fill-rule="evenodd">
    <polygon fill="#9AA7B0" fill-opacity=".8" points="7 1 3 5 7 5"/>
    <polygon fill="#9AA7B0" fill-opacity=".8" points="8 1 8 6 3 6 3 15 13 15 13 1"/>
    <path fill="#231F20" opacity=".7" d="M5.5,9 C6.32842712,9 7,9.67157288 7,10.5 C7,11.3284271 6.32842712,12 5.5,12 C4.67157288,12 4,11.3284271 4,10.5 C4,9.67157288 4.67157288,9 5.5,9 Z"/>
    <path fill="#231F20" opacity=".7" d="M10.5,9 C11.3284271,9 12,9.67157288 12,10.5 C12,11.3284271 11.3284271,12 10.5,12 C9.67157288,12 9,11.3284271 9,10.5 C9,9.67157288 9.67157288,9 10.5,9 Z"/>
  </g>
</svg>